<svg width="512" height="512" viewBox="0 0 512 512" fill="none" xmlns="http://www.w3.org/2000/svg">
<path d="M8.52783 0H226.816V218.288H8.52783V0Z" fill="url(#paint0_linear_48_3)"/>
<path d="M8.52783 293.712H226.816V512H8.52783V293.712Z" fill="url(#paint1_linear_48_3)"/>
<path d="M291.344 32.576H503.456V66.704H291.344V32.576Z" fill="url(#paint2_linear_48_3)"/>
<path d="M291.344 135.76H503.456V169.888H291.344V135.76Z" fill="url(#paint3_linear_48_3)"/>
<path d="M291.344 238.928H503.456V273.056H291.344V238.928Z" fill="url(#paint4_linear_48_3)"/>
<path d="M291.344 342.112H503.456V376.24H291.344V342.112Z" fill="url(#paint5_linear_48_3)"/>
<path d="M291.344 445.28H503.456V479.408H291.344V445.28Z" fill="url(#paint6_linear_48_3)"/>
<defs>
<linearGradient id="paint0_linear_48_3" x1="117.672" y1="0" x2="117.672" y2="218.288" gradientUnits="userSpaceOnUse">
<stop stop-color="#88B5F9"/>
<stop offset="1" stop-color="#05539B"/>
</linearGradient>
<linearGradient id="paint1_linear_48_3" x1="117.672" y1="293.712" x2="117.672" y2="512" gradientUnits="userSpaceOnUse">
<stop stop-color="#88B5F9"/>
<stop offset="1" stop-color="#05539B"/>
</linearGradient>
<linearGradient id="paint2_linear_48_3" x1="397.4" y1="32.576" x2="397.4" y2="66.704" gradientUnits="userSpaceOnUse">
<stop stop-color="#88B5F9"/>
<stop offset="1" stop-color="#05539B"/>
</linearGradient>
<linearGradient id="paint3_linear_48_3" x1="397.4" y1="135.76" x2="397.4" y2="169.888" gradientUnits="userSpaceOnUse">
<stop stop-color="#88B5F9"/>
<stop offset="1" stop-color="#05539B"/>
</linearGradient>
<linearGradient id="paint4_linear_48_3" x1="397.4" y1="238.928" x2="397.4" y2="273.056" gradientUnits="userSpaceOnUse">
<stop stop-color="#88B5F9"/>
<stop offset="1" stop-color="#05539B"/>
</linearGradient>
<linearGradient id="paint5_linear_48_3" x1="397.4" y1="342.112" x2="397.4" y2="376.24" gradientUnits="userSpaceOnUse">
<stop stop-color="#88B5F9"/>
<stop offset="1" stop-color="#05539B"/>
</linearGradient>
<linearGradient id="paint6_linear_48_3" x1="397.4" y1="445.28" x2="397.4" y2="479.408" gradientUnits="userSpaceOnUse">
<stop stop-color="#88B5F9"/>
<stop offset="1" stop-color="#05539B"/>
</linearGradient>
</defs>
</svg>
